<svg width="51" height="51" viewBox="0 0 51 51" fill="none" xmlns="http://www.w3.org/2000/svg">
<path d="M19.0911 45.862H31.5911C42.0078 45.862 46.1745 41.6953 46.1745 31.2786V18.7786C46.1745 8.36198 42.0078 4.19531 31.5911 4.19531H19.0911C8.67448 4.19531 4.50781 8.36198 4.50781 18.7786V31.2786C4.50781 41.6953 8.67448 45.862 19.0911 45.862Z" stroke="#7A62EB" stroke-width="1.5" stroke-linecap="round" stroke-linejoin="round"/>
<path fill-rule="evenodd" clip-rule="evenodd" d="M18.6518 31.7193C18.4077 31.4752 18.4077 31.0795 18.6518 30.8354L30.0849 19.4023L22.2187 19.4023C21.8736 19.4023 21.5937 19.1225 21.5937 18.7773C21.5937 18.4322 21.8736 18.1523 22.2187 18.1523L31.5937 18.1523C31.9389 18.1523 32.2187 18.4322 32.2187 18.7773L32.2188 28.1523C32.2188 28.4975 31.9389 28.7773 31.5937 28.7773C31.2486 28.7773 30.9687 28.4975 30.9687 28.1523L30.9687 20.2862L19.5357 31.7193C19.2916 31.9634 18.8959 31.9634 18.6518 31.7193Z" fill="#7A62EB"/>
</svg>
