<svg width="24" height="25" viewBox="0 0 24 25" fill="none" xmlns="http://www.w3.org/2000/svg">
<path fill-rule="evenodd" clip-rule="evenodd" d="M1 12.6133C1 6.53815 5.92487 1.61328 12 1.61328C18.0751 1.61328 23 6.53815 23 12.6133C23 18.6884 18.0751 23.6133 12 23.6133C5.92487 23.6133 1 18.6884 1 12.6133Z" fill="#7A62EB"/>
<path fill-rule="evenodd" clip-rule="evenodd" d="M17.3127 8.65625C17.7032 9.04677 17.7032 9.67994 17.3127 10.0705L11.1055 16.5705C10.715 16.961 10.0819 16.961 9.69133 16.5705L6.69133 13.5705C6.30081 13.1799 6.30081 12.5468 6.69133 12.1563C7.08185 11.7657 7.71502 11.7657 8.10554 12.1563L10.3984 14.4491L15.8984 8.65625C16.289 8.26573 16.9221 8.26573 17.3127 8.65625Z" fill="white"/>
</svg>
